<?xml version="1.0" encoding="UTF-8" standalone="no"?>
<svg width="1167px" height="275px" viewBox="0 0 1167 275" version="1.1" xmlns="http://www.w3.org/2000/svg" xmlns:xlink="http://www.w3.org/1999/xlink">
    <!-- Generator: Sketch 45.2 (43514) - http://www.bohemiancoding.com/sketch -->
    <title>logo_color_orange</title>
    <desc>Created with Sketch.</desc>
    <defs></defs>
    <g id="Page-1" stroke="none" stroke-width="1" fill="none" fill-rule="evenodd">
        <g id="logo_color_orange" transform="translate(-1.000000, 0.000000)">
            <path d="M78.6904762,0 C75.391619,0 72.7142857,2.67826087 72.7142857,5.97826087 L72.7142857,53.8043478 C72.7142857,57.1043478 75.391619,59.7826087 78.6904762,59.7826087 L120.52381,59.7826087 L120.52381,67.4422554 C118.760833,68.4921875 117.265292,69.9605978 116.228423,71.7391304 L120.52381,71.7391304 L132.47619,71.7391304 L136.771577,71.7391304 C135.737696,69.9605978 134.239914,68.4921875 132.47619,67.4422554 L132.47619,59.7826087 L174.309524,59.7826087 C177.614357,59.7826087 180.285714,57.1043478 180.285714,53.8043478 L180.285714,5.97826087 C180.285714,2.67826087 177.614357,0 174.309524,0 L78.6904762,0 Z M108.571429,23.9130435 C111.870286,23.9130435 114.547619,26.5913043 114.547619,29.8913043 C114.547619,33.1913043 111.870286,35.8695652 108.571429,35.8695652 C105.272571,35.8695652 102.595238,33.1913043 102.595238,29.8913043 C102.595238,26.5913043 105.272571,23.9130435 108.571429,23.9130435 Z M144.428571,23.9130435 C147.727429,23.9130435 150.404762,26.5913043 150.404762,29.8913043 C150.404762,33.1913043 147.727429,35.8695652 144.428571,35.8695652 C141.129714,35.8695652 138.452381,33.1913043 138.452381,29.8913043 C138.452381,26.5913043 141.129714,23.9130435 144.428571,23.9130435 Z M74.5818452,77.7173913 C67.858631,77.7173913 61.3580298,80.5899457 56.8400298,85.5638587 C56.0443538,86.4398234 55.4359656,87.3931467 54.7857143,88.3661685 C51.6008888,85.4903739 47.4162646,83.6956522 42.8333333,83.6956522 C33.0024408,83.6956522 24.9047619,91.7961418 24.9047619,101.630435 C24.9047619,107.256229 27.5194964,112.342857 31.6279762,115.641984 L14.4464286,168.138587 C6.79703923,170.18308 1,177.069577 1,185.326087 C0.969519698,187.482063 2.10186189,189.487443 3.9634306,190.574329 C5.82499931,191.661215 8.12738164,191.661215 9.98895035,190.574329 C11.8505191,189.487443 12.9828613,187.482063 12.952381,185.326087 C12.952381,181.94819 15.5518433,179.347826 18.9285714,179.347826 C22.3052995,179.347826 24.9047619,181.94819 24.9047619,185.326087 C24.8742816,187.482063 26.0066238,189.487443 27.8681925,190.574329 C29.7297612,191.661215 32.0321435,191.661215 33.8937123,190.574329 C35.755281,189.487443 36.8876232,187.482063 36.8571429,185.326087 C36.8571429,178.302258 32.7151522,172.194897 26.7723214,169.259511 L43.0200893,119.565217 C46.2835136,119.530233 49.3483252,118.534601 51.984375,116.949728 L59.2678571,193.546196 C60.4332143,205.885326 70.591244,215.217391 82.9858631,215.217391 L175.056548,215.217391 C187.833643,215.217391 198.345762,205.194837 198.96131,192.425272 L202.509673,117.697011 C204.794795,118.799229 207.299972,119.536486 209.979911,119.565217 L226.227679,169.259511 C220.284847,172.194897 216.142857,178.302258 216.142857,185.326087 C216.112377,187.482063 217.244719,189.487443 219.106288,190.574329 C220.967856,191.661215 223.270239,191.661215 225.131807,190.574329 C226.993376,189.487443 228.125718,187.482063 228.095238,185.326087 C228.095238,181.94819 230.694702,179.347826 234.071429,179.347826 C237.448155,179.347826 240.047619,181.94819 240.047619,185.326087 C240.017139,187.482063 241.149481,189.487443 243.01105,190.574329 C244.872618,191.661215 247.175001,191.661215 249.036569,190.574329 C250.898138,189.487443 252.03048,187.482063 252,185.326087 C252,177.069577 246.202964,170.18308 238.553571,168.138587 L221.372024,115.641984 C225.480505,112.342857 228.095238,107.256229 228.095238,101.630435 C228.095238,91.7961359 219.99756,83.6956522 210.166667,83.6956522 C205.86565,83.6956522 201.879113,85.237888 198.774554,87.8057065 C198.118912,86.8914989 197.512651,86.0203049 196.720238,85.1902174 C192.166381,80.413587 185.949649,77.7173913 179.351935,77.7173913 L74.5818452,77.7173913 Z M42.8333333,95.6521739 C46.2046697,95.6521739 48.8095238,98.2579304 48.8095238,101.630435 C48.8095238,105.002939 46.2046697,107.608696 42.8333333,107.608696 C42.1171646,107.608696 41.4083824,107.452597 40.7790179,107.235054 C40.6545443,107.231162 40.5299795,107.231162 40.405506,107.235054 C38.2506052,106.344102 36.8571429,104.159819 36.8571429,101.630435 C36.8571429,98.2579245 39.461991,95.6521739 42.8333333,95.6521739 Z M210.166667,95.6521739 C213.538003,95.6521739 216.142857,98.2579304 216.142857,101.630435 C216.142857,104.007033 214.911798,106.076736 212.968006,107.048234 C212.583078,107.135465 212.207733,107.260623 211.84747,107.421875 C211.322396,107.566639 210.746417,107.608696 210.166667,107.608696 C206.79533,107.608696 204.190476,105.002939 204.190476,101.630435 C204.190476,98.2579304 206.79533,95.6521739 210.166667,95.6521739 Z M96.6190476,221.195652 L96.6190476,257.065217 C96.6190476,266.953261 104.663,275 114.547619,275 L144.428571,275 C154.31319,275 162.357143,266.953261 162.357143,257.065217 L162.357143,221.195652 L150.404762,221.195652 L150.404762,233.152174 L138.452381,233.152174 L138.452381,221.195652 L120.52381,221.195652 L120.52381,233.152174 L108.571429,233.152174 L108.571429,221.195652 L96.6190476,221.195652 Z M108.571429,245.108696 L120.52381,245.108696 L120.52381,257.065217 L108.571429,257.065217 L108.571429,245.108696 Z M138.452381,245.108696 L150.404762,245.108696 L150.404762,257.065217 L138.452381,257.065217 L138.452381,245.108696 Z" id="Shape" fill="#FFFFFF" fill-rule="nonzero"></path>
            <path d="M155.110769,166.478974 C155.110769,180.25641 146.380513,187.895385 132.330256,189.941538 L132.330256,201.4 L122.645128,201.4 L122.645128,190.487179 C111.868718,190.214359 101.637949,187.622564 97,185.44 L97,166.342564 L106.003077,166.342564 L108.185641,175.754872 C108.594872,177.801026 109.004103,178.346667 111.186667,179.165128 C113.232821,179.98359 117.461538,181.074872 122.645128,181.347692 L122.645128,152.292308 C111.186667,149.018462 99.4553846,145.062564 99.4553846,129.102564 C99.4553846,114.233846 109.413333,106.867692 122.645128,105.094359 L122.645128,95 L132.330256,95 L132.330256,104.821538 C141.606154,105.230769 148.972308,107.549744 154.019487,109.186667 L154.019487,129.921026 L144.88,128.966154 L142.697436,118.462564 C142.288205,116.41641 141.742564,115.870769 139.969231,115.325128 C137.923077,114.643077 135.331282,114.233846 132.330256,114.097436 L132.330256,143.425641 C143.515897,146.835897 155.110769,151.201026 155.110769,166.478974 Z M111.050256,127.329231 C111.050256,134.558974 115.961026,137.969231 122.645128,140.424615 L122.645128,114.643077 C115.415385,116.14359 111.050256,120.645128 111.050256,127.329231 Z M143.243077,167.979487 C143.243077,161.022564 138.605128,157.748718 132.330256,155.293333 L132.330256,180.665641 C139.969231,178.892308 143.243077,173.981538 143.243077,167.979487 Z" id="$" fill="#08A2CC"></path>
            <path d="M372,213.222319 L372,61.7704608 L413.556912,61.7704608 C444.493725,61.7704608 465.503053,72.1596889 465.503053,98.7099385 C465.503053,113.716601 456.729927,127.107162 438.952803,131.724597 L438.952803,132.648084 C461.11649,136.11116 474.045307,148.11649 474.045307,168.894946 C474.045307,198.6774 450.727262,213.222319 417.019988,213.222319 L372,213.222319 Z M391.393226,126.414547 L410.324708,126.414547 C436.182342,126.414547 446.571571,117.179677 446.571571,100.326041 C446.571571,83.9341474 434.56624,77.0079954 411.248195,77.0079954 L391.393226,77.0079954 L391.393226,126.414547 Z M391.393226,197.984785 L414.249528,197.984785 C440.107162,197.984785 455.113825,188.519044 455.113825,167.971459 C455.113825,149.270849 440.799777,140.728594 414.249528,140.728594 L391.393226,140.728594 L391.393226,197.984785 Z M508.676067,213.222319 L603.333479,213.222319 L603.333479,196.830426 L565.701386,196.830426 L565.701386,77.9314823 L603.333479,77.9314823 L603.333479,61.7704608 L508.676067,61.7704608 L508.676067,77.9314823 L546.30816,77.9314823 L546.30816,196.830426 L508.676067,196.830426 L508.676067,213.222319 Z M656.203106,213.222319 L750.167902,213.222319 L750.167902,196.830426 L675.134589,196.830426 L675.134589,61.7704608 L656.203106,61.7704608 L656.203106,213.222319 Z M833.050855,215.99278 C798.881839,215.99278 774.871178,185.517711 774.871178,136.803775 C774.871178,88.3207104 798.881839,59 833.050855,59 C867.219872,59 891.230533,88.5515821 891.230533,136.803775 C891.230533,185.517711 867.219872,215.99278 833.050855,215.99278 Z M833.050855,199.139143 C856.138029,199.139143 871.375564,174.666739 871.375564,136.803775 C871.375564,99.171682 856.138029,75.8536367 833.050855,75.8536367 C809.963682,75.8536367 794.726147,99.171682 794.726147,136.803775 C794.726147,174.666739 809.963682,199.139143 833.050855,199.139143 Z M924.245191,213.222319 L1018.9026,213.222319 L1018.9026,196.830426 L981.27051,196.830426 L981.27051,77.9314823 L1018.9026,77.9314823 L1018.9026,61.7704608 L924.245191,61.7704608 L924.245191,77.9314823 L961.877284,77.9314823 L961.877284,196.830426 L924.245191,196.830426 L924.245191,213.222319 Z M1060.45951,213.222319 L1060.45951,61.7704608 L1097.39899,61.7704608 C1143.1116,61.7704608 1167.584,88.7824539 1167.584,136.803775 C1167.584,185.055967 1143.1116,213.222319 1098.32248,213.222319 L1060.45951,213.222319 Z M1079.62187,197.523041 L1096.24463,197.523041 C1130.64452,197.523041 1147.72903,175.128483 1147.72903,136.803775 C1147.72903,98.7099385 1130.64452,77.4697388 1096.24463,77.4697388 L1079.62187,77.4697388 L1079.62187,197.523041 Z" id="BILOID" fill="#FFFFFF"></path>
        </g>
    </g>
</svg>