<svg xmlns="http://www.w3.org/2000/svg" viewBox="0 0 200 200"><title>Plan de travail 1</title><g style="isolation:isolate"><g id="445e6525-754b-479f-ac13-f44715c4f84b" data-name="Calque 1"><path d="M170,140.66a3,3,0,0,0,2.54-2.92V119.38a3,3,0,0,0-2.54-2.92l-16.12-2.22v28.65Z" style="fill:#efefef"/><path d="M153.88,131.4l18.67-5v11.29a3,3,0,0,1-2.54,2.92l-16.12,2.22Z" style="fill:#d8d8d8"/><path d="M130.08,70.64s-10.53,8.14-9,20.32c0,0-12.66,3.07-18.48-7.49C102.64,83.47,104.37,68.93,130.08,70.64Z" style="fill:#e8e8e8"/><ellipse cx="94.04" cy="128.56" rx="66.98" ry="52.33" style="fill:#efefef"/><path d="M112.63,188h25.72l-6-17.84c-4.55-4.55-21.17-4.55-25.7,0Z" style="fill:#e0e0e0"/><path d="M76.51,188H50.79l6-17.84c4.54-4.55,21.17-4.55,25.72,0Z" style="fill:#e0e0e0"/><path d="M144.68,75.28s-10.53,8.14-9,20.32c0,0-12.66,3.07-18.51-7.49C117.2,88.11,118.94,73.57,144.68,75.28Z" style="fill:#efefef"/><path d="M135.59,93.89A12,12,0,0,1,125,87.73s1.26-11.38,18.51-11.44C141,78.66,135.25,85.09,135.59,93.89Z" style="fill:#d8d8d8"/><circle cx="133.43" cy="115.68" r="6.02" style="fill:#fff"/><circle cx="134.13" cy="116.39" r="3.87" style="fill:#676767"/><path d="M45.5,164.54c79.52-4.29,93.94-20.05,115.5-36.28,0,.1,0,.19,0,.29,0,28.9-30,52.33-67,52.33C74.92,180.89,57.7,174.59,45.5,164.54Z" style="fill:#e8e8e8"/><path d="M101.3,83.42A3.92,3.92,0,0,1,97,86.52,55.16,55.16,0,0,0,71.92,89.9,3.92,3.92,0,0,1,67,88h0a3.72,3.72,0,0,1,2.34-4.93,62.49,62.49,0,0,1,28.4-3.82,3.72,3.72,0,0,1,3.57,4.14Z" style="fill:#a2a2a2"/><path d="M98.45,69.78A16.18,16.18,0,1,1,82.39,53.53,16.15,16.15,0,0,1,98.45,69.78Z" style="fill:#00beff"/><path d="M96.23,69.76a14,14,0,1,1-13.86-14A14,14,0,0,1,96.23,69.76Z" style="fill:#0aa4f5"/><path d="M95.14,69.75A12.86,12.86,0,1,1,82.36,56.81,12.86,12.86,0,0,1,95.14,69.75Z" style="fill:#00beff"/><g style="mix-blend-mode:overlay"><path d="M81.6,77.26v-1.9a4.94,4.94,0,0,1-2.81-.84l.45-1.2a4.85,4.85,0,0,0,2.67.8c1.29,0,2.21-.73,2.21-1.8s-.72-1.66-2.09-2.21c-1.87-.74-3-1.58-3-3.2A2.94,2.94,0,0,1,81.82,64V62.1H83V63.9a4.61,4.61,0,0,1,2.39.67l-.47,1.2a4.56,4.56,0,0,0-2.31-.63c-1.43,0-2,.83-2,1.55,0,1,.65,1.47,2.29,2.13,1.87.77,2.83,1.73,2.81,3.39a3.16,3.16,0,0,1-2.94,3.09v1.93Z" style="fill:#231f20"/></g><path d="M76.62,39.4a10,10,0,1,1-9.91-10A10,10,0,0,1,76.62,39.4Z" style="fill:#00beff"/><path d="M75.25,39.39a8.61,8.61,0,1,1-8.55-8.66A8.63,8.63,0,0,1,75.25,39.39Z" style="fill:#0aa4f5"/><path d="M74.58,39.39a7.94,7.94,0,1,1-7.88-8A7.94,7.94,0,0,1,74.58,39.39Z" style="fill:#00beff"/><g style="mix-blend-mode:overlay"><path d="M66.22,44V42.84a3,3,0,0,1-1.73-.52l.27-.74a3,3,0,0,0,1.65.5c.79,0,1.36-.45,1.36-1.11s-.44-1-1.29-1.37c-1.16-.45-1.87-1-1.85-2a1.81,1.81,0,0,1,1.72-1.81V34.66h.72v1.11a2.82,2.82,0,0,1,1.47.41l-.29.74a2.81,2.81,0,0,0-1.43-.39c-.88,0-1.21.51-1.2,1,0,.61.4.91,1.41,1.32,1.16.48,1.75,1.07,1.74,2.1a2,2,0,0,1-1.82,1.91V44Z" style="fill:#231f20"/></g><path d="M103.34,42.74a8.19,8.19,0,1,1-8.13-8.23A8.18,8.18,0,0,1,103.34,42.74Z" style="fill:#00beff"/><path d="M102.21,42.73a7.07,7.07,0,1,1-7-7.11A7.08,7.08,0,0,1,102.21,42.73Z" style="fill:#0aa4f5"/><path d="M101.66,42.72a6.51,6.51,0,1,1-6.47-6.55A6.52,6.52,0,0,1,101.66,42.72Z" style="fill:#00beff"/><g style="mix-blend-mode:overlay"><path d="M94.81,46.52v-1a2.47,2.47,0,0,1-1.42-.43l.22-.6a2.45,2.45,0,0,0,1.35.41c.65,0,1.12-.37,1.12-.91s-.36-.84-1.06-1.12c-.95-.37-1.53-.8-1.51-1.62a1.49,1.49,0,0,1,1.41-1.48v-1h.59v.91a2.35,2.35,0,0,1,1.21.34l-.24.61a2.27,2.27,0,0,0-1.17-.32c-.72,0-1,.41-1,.78s.33.74,1.15,1.08,1.43.88,1.42,1.72a1.6,1.6,0,0,1-1.49,1.56v1Z" style="fill:#231f20"/></g><path d="M90,19.1a7.26,7.26,0,1,1-7.2-7.29A7.24,7.24,0,0,1,90,19.1Z" style="fill:#00beff"/><path d="M89,19.09a6.26,6.26,0,1,1-6.22-6.29A6.27,6.27,0,0,1,89,19.09Z" style="fill:#0aa4f5"/><path d="M88.5,19.09a5.77,5.77,0,1,1-5.73-5.81A5.77,5.77,0,0,1,88.5,19.09Z" style="fill:#00beff"/><g style="mix-blend-mode:overlay"><path d="M82.43,22.45V21.6a2.21,2.21,0,0,1-1.26-.38l.2-.54a2.18,2.18,0,0,0,1.2.36c.59,0,1-.33,1-.81s-.32-.74-.94-1c-.84-.33-1.35-.71-1.34-1.44a1.32,1.32,0,0,1,1.26-1.31v-.85H83v.81a2,2,0,0,1,1.07.3l-.21.54a2,2,0,0,0-1-.28c-.64,0-.88.37-.87.69s.29.66,1,1,1.27.78,1.26,1.52A1.41,1.41,0,0,1,83,21.58v.86Z" style="fill:#231f20"/></g></g></g></svg>