<svg xmlns="http://www.w3.org/2000/svg" viewBox="0 0 200 200"><title>Plan de travail 1</title><g style="isolation:isolate"><g id="935fed62-770b-4fac-9a2a-b043d18572d0" data-name="Calque 3"><path d="M45.88,184.17l-2.58-3.73-2.53,3.73-3.26-2.4,2.83-3.35-4-.82,1.2-4,4,1.5-.21-4h4.07l-.43,4.12,4.2-1.59,1.12,4-4.12.82,3,3.35Z" style="fill:#676767"/><path d="M69.28,184.17l-2.58-3.73-2.53,3.73-3.26-2.4,2.83-3.35-4-.82,1.2-4,4,1.5-.22-4h4.07l-.43,4.12,4.21-1.59,1.12,4-4.12.82,3,3.35Z" style="fill:#676767"/><path d="M92.68,184.17l-2.58-3.73-2.53,3.73-3.26-2.4,2.83-3.35-4-.82,1.2-4,3.95,1.5-.21-4h4.08l-.43,4.12,4.2-1.59,1.11,4-4.12.82,3,3.35Z" style="fill:#676767"/><path d="M116.07,184.17l-2.58-3.73L111,184.17l-3.26-2.4,2.83-3.35-4-.82,1.2-4,3.95,1.5-.21-4h4.08l-.43,4.12,4.2-1.59,1.12,4-4.12.82,3,3.35Z" style="fill:#676767"/><path d="M139.47,184.17l-2.57-3.73-2.53,3.73-3.26-2.4,2.83-3.35-4-.82,1.2-4,3.95,1.5-.21-4h4.08l-.43,4.12,4.2-1.59,1.12,4-4.12.82,3,3.35Z" style="fill:#676767"/><polygon points="70.92 153.29 68.91 153.29 67.16 153.29 65.15 153.29 63.39 153.29 61.38 153.29 59.62 153.29 57.62 153.29 55.85 153.29 53.85 153.29 52.09 153.29 50.09 153.29 48.33 153.29 46.32 153.29 44.56 153.29 42.56 153.29 40.8 153.29 38.79 153.29 37.03 153.29 35.02 153.29 33.27 153.29 31.26 153.29 29.5 153.29 27.5 153.29 25.74 153.29 23.73 153.29 22.29 153.29 22.29 159.75 23.73 159.75 25.74 159.75 27.5 159.75 29.5 159.75 31.26 159.75 33.27 159.75 35.02 159.75 37.03 159.75 38.79 159.75 40.8 159.75 42.56 159.75 44.56 159.75 46.32 159.75 48.33 159.75 50.09 159.75 52.09 159.75 53.85 159.75 55.85 159.75 57.62 159.75 59.62 159.75 61.38 159.75 63.39 159.75 65.15 159.75 67.16 159.75 68.91 159.75 70.92 159.75 72.47 159.75 72.47 153.29 70.92 153.29" style="fill:#bcbec0;mix-blend-mode:multiply"/><rect x="22.88" y="152.69" width="50.19" height="6.46" style="fill:#efefef"/><rect x="24.33" y="152.69" width="2.01" height="6.46" style="fill:#d8d8d8"/><rect x="28.43" y="152.69" width="2.01" height="6.46" style="fill:#d8d8d8"/><rect x="32.54" y="152.69" width="2.01" height="6.46" style="fill:#d8d8d8"/><rect x="36.65" y="152.69" width="2" height="6.46" style="fill:#d8d8d8"/><rect x="40.76" y="152.69" width="2" height="6.46" style="fill:#d8d8d8"/><rect x="44.86" y="152.69" width="2.01" height="6.46" style="fill:#d8d8d8"/><rect x="48.97" y="152.69" width="2" height="6.46" style="fill:#d8d8d8"/><rect x="53.08" y="152.69" width="2.01" height="6.46" style="fill:#d8d8d8"/><rect x="57.18" y="152.69" width="2.01" height="6.46" style="fill:#d8d8d8"/><rect x="61.29" y="152.69" width="2.01" height="6.46" style="fill:#d8d8d8"/><rect x="65.4" y="152.69" width="2.01" height="6.46" style="fill:#d8d8d8"/><rect x="69.51" y="152.69" width="2.01" height="6.46" style="fill:#d8d8d8"/><polygon points="68.11 146.24 66.1 146.24 64.34 146.24 62.34 146.24 60.58 146.24 58.57 146.24 56.81 146.24 54.81 146.24 53.04 146.24 51.04 146.24 49.28 146.24 47.28 146.24 45.52 146.24 43.51 146.24 41.75 146.24 39.74 146.24 37.98 146.24 35.98 146.24 34.22 146.24 32.21 146.24 30.46 146.24 28.45 146.24 26.69 146.24 24.68 146.24 22.93 146.24 20.92 146.24 19.47 146.24 19.47 152.69 20.92 152.69 22.93 152.69 24.68 152.69 26.69 152.69 28.45 152.69 30.46 152.69 32.21 152.69 34.22 152.69 35.98 152.69 37.98 152.69 39.74 152.69 41.75 152.69 43.51 152.69 45.52 152.69 47.28 152.69 49.28 152.69 51.04 152.69 53.04 152.69 54.81 152.69 56.81 152.69 58.57 152.69 60.58 152.69 62.34 152.69 64.34 152.69 66.1 152.69 68.11 152.69 69.65 152.69 69.65 146.24 68.11 146.24" style="fill:#bcbec0;mix-blend-mode:multiply"/><rect x="20.06" y="145.64" width="50.18" height="6.46" style="fill:#efefef"/><rect x="21.51" y="145.64" width="2.01" height="6.46" style="fill:#d8d8d8"/><rect x="25.62" y="145.64" width="2.01" height="6.46" style="fill:#d8d8d8"/><rect x="29.72" y="145.64" width="2.01" height="6.46" style="fill:#d8d8d8"/><rect x="33.83" y="145.64" width="2.01" height="6.46" style="fill:#d8d8d8"/><rect x="37.95" y="145.64" width="2" height="6.46" style="fill:#d8d8d8"/><rect x="42.05" y="145.64" width="2.01" height="6.46" style="fill:#d8d8d8"/><rect x="46.16" y="145.64" width="2" height="6.46" style="fill:#d8d8d8"/><rect x="50.27" y="145.64" width="2.01" height="6.46" style="fill:#d8d8d8"/><rect x="54.37" y="145.64" width="2.01" height="6.46" style="fill:#d8d8d8"/><rect x="58.48" y="145.64" width="2.01" height="6.46" style="fill:#d8d8d8"/><rect x="62.59" y="145.64" width="2.01" height="6.46" style="fill:#d8d8d8"/><rect x="66.7" y="145.64" width="2.01" height="6.46" style="fill:#d8d8d8"/><polygon points="66.13 139.18 64.13 139.18 62.37 139.18 60.36 139.18 58.6 139.18 56.6 139.18 54.84 139.18 52.83 139.18 51.07 139.18 49.07 139.18 47.31 139.18 45.3 139.18 43.54 139.18 41.53 139.18 39.78 139.18 37.77 139.18 36.01 139.18 34.01 139.18 32.24 139.18 30.24 139.18 28.48 139.18 26.48 139.18 24.71 139.18 22.71 139.18 20.95 139.18 18.94 139.18 17.5 139.18 17.5 145.64 18.94 145.64 20.95 145.64 22.71 145.64 24.71 145.64 26.48 145.64 28.48 145.64 30.24 145.64 32.24 145.64 34.01 145.64 36.01 145.64 37.77 145.64 39.78 145.64 41.53 145.64 43.54 145.64 45.3 145.64 47.31 145.64 49.07 145.64 51.07 145.64 52.83 145.64 54.84 145.64 56.6 145.64 58.6 145.64 60.36 145.64 62.37 145.64 64.13 145.64 66.13 145.64 67.68 145.64 67.68 139.18 66.13 139.18" style="fill:#bcbec0;mix-blend-mode:multiply"/><rect x="18.09" y="138.58" width="50.18" height="6.46" style="fill:#efefef"/><rect x="19.53" y="138.58" width="2.01" height="6.46" style="fill:#d8d8d8"/><rect x="23.65" y="138.58" width="2.01" height="6.46" style="fill:#d8d8d8"/><rect x="27.75" y="138.58" width="2.01" height="6.46" style="fill:#d8d8d8"/><rect x="31.86" y="138.58" width="2.01" height="6.46" style="fill:#d8d8d8"/><rect x="35.97" y="138.58" width="2" height="6.46" style="fill:#d8d8d8"/><rect x="40.07" y="138.58" width="2.01" height="6.46" style="fill:#d8d8d8"/><rect x="44.18" y="138.58" width="2" height="6.46" style="fill:#d8d8d8"/><rect x="48.29" y="138.58" width="2.01" height="6.46" style="fill:#d8d8d8"/><rect x="52.4" y="138.58" width="2" height="6.46" style="fill:#d8d8d8"/><rect x="56.51" y="138.58" width="2.01" height="6.46" style="fill:#d8d8d8"/><rect x="60.61" y="138.58" width="2.01" height="6.46" style="fill:#d8d8d8"/><rect x="64.72" y="138.58" width="2.01" height="6.46" style="fill:#d8d8d8"/><polygon points="67.93 132.12 65.92 132.12 64.16 132.12 62.16 132.12 60.4 132.12 58.39 132.12 56.63 132.12 54.63 132.12 52.86 132.12 50.86 132.12 49.1 132.12 47.09 132.12 45.33 132.12 43.33 132.12 41.57 132.12 39.56 132.12 37.8 132.12 35.8 132.12 34.04 132.12 32.03 132.12 30.28 132.12 28.27 132.12 26.51 132.12 24.5 132.12 22.74 132.12 20.74 132.12 19.29 132.12 19.29 138.58 20.74 138.58 22.74 138.58 24.5 138.58 26.51 138.58 28.27 138.58 30.28 138.58 32.03 138.58 34.04 138.58 35.8 138.58 37.8 138.58 39.56 138.58 41.57 138.58 43.33 138.58 45.33 138.58 47.09 138.58 49.1 138.58 50.86 138.58 52.86 138.58 54.63 138.58 56.63 138.58 58.39 138.58 60.4 138.58 62.16 138.58 64.16 138.58 65.92 138.58 67.93 138.58 69.47 138.58 69.47 132.12 67.93 132.12" style="fill:#bcbec0;mix-blend-mode:multiply"/><rect x="19.88" y="131.52" width="50.19" height="6.47" style="fill:#efefef"/><rect x="21.33" y="131.52" width="2.01" height="6.47" style="fill:#d8d8d8"/><rect x="25.44" y="131.52" width="2" height="6.47" style="fill:#d8d8d8"/><rect x="29.54" y="131.52" width="2.01" height="6.47" style="fill:#d8d8d8"/><rect x="33.66" y="131.52" width="2" height="6.47" style="fill:#d8d8d8"/><rect x="37.76" y="131.52" width="2" height="6.47" style="fill:#d8d8d8"/><rect x="41.87" y="131.52" width="2.01" height="6.47" style="fill:#d8d8d8"/><rect x="45.98" y="131.52" width="2" height="6.47" style="fill:#d8d8d8"/><rect x="50.08" y="131.52" width="2.01" height="6.47" style="fill:#d8d8d8"/><rect x="54.19" y="131.52" width="2.01" height="6.47" style="fill:#d8d8d8"/><rect x="58.3" y="131.52" width="2.01" height="6.47" style="fill:#d8d8d8"/><rect x="62.4" y="131.52" width="2.01" height="6.47" style="fill:#d8d8d8"/><rect x="66.51" y="131.52" width="2.01" height="6.47" style="fill:#d8d8d8"/><polygon points="69.3 125.06 67.3 125.06 65.53 125.06 63.53 125.06 61.77 125.06 59.77 125.06 58.01 125.06 56 125.06 54.23 125.06 52.23 125.06 50.48 125.06 48.47 125.06 46.71 125.06 44.7 125.06 42.94 125.06 40.93 125.06 39.18 125.06 37.17 125.06 35.41 125.06 33.41 125.06 31.65 125.06 29.64 125.06 27.88 125.06 25.88 125.06 24.12 125.06 22.11 125.06 20.67 125.06 20.67 131.52 22.11 131.52 24.12 131.52 25.88 131.52 27.88 131.52 29.64 131.52 31.65 131.52 33.41 131.52 35.41 131.52 37.17 131.52 39.18 131.52 40.93 131.52 42.94 131.52 44.7 131.52 46.71 131.52 48.47 131.52 50.48 131.52 52.23 131.52 54.23 131.52 56 131.52 58.01 131.52 59.77 131.52 61.77 131.52 63.53 131.52 65.53 131.52 67.3 131.52 69.3 131.52 70.84 131.52 70.84 125.06 69.3 125.06" style="fill:#bcbec0;mix-blend-mode:multiply"/><rect x="21.26" y="124.47" width="50.18" height="6.46" style="fill:#efefef"/><rect x="22.7" y="124.47" width="2.01" height="6.46" style="fill:#d8d8d8"/><rect x="26.82" y="124.47" width="2" height="6.46" style="fill:#d8d8d8"/><rect x="30.92" y="124.47" width="2.01" height="6.46" style="fill:#d8d8d8"/><rect x="35.03" y="124.47" width="2" height="6.46" style="fill:#d8d8d8"/><rect x="39.14" y="124.47" width="2" height="6.46" style="fill:#d8d8d8"/><rect x="43.24" y="124.47" width="2.01" height="6.46" style="fill:#d8d8d8"/><rect x="47.35" y="124.47" width="2.01" height="6.46" style="fill:#d8d8d8"/><rect x="51.46" y="124.47" width="2.01" height="6.46" style="fill:#d8d8d8"/><rect x="55.57" y="124.47" width="2.01" height="6.46" style="fill:#d8d8d8"/><rect x="59.67" y="124.47" width="2.01" height="6.46" style="fill:#d8d8d8"/><rect x="63.78" y="124.47" width="2.01" height="6.46" style="fill:#d8d8d8"/><rect x="67.89" y="124.47" width="2.01" height="6.46" style="fill:#d8d8d8"/><polygon points="67.75 118 65.74 118 63.98 118 61.98 118 60.21 118 58.21 118 56.45 118 54.44 118 52.68 118 50.68 118 48.92 118 46.91 118 45.15 118 43.14 118 41.39 118 39.38 118 37.62 118 35.62 118 33.85 118 31.85 118 30.09 118 28.09 118 26.33 118 24.32 118 22.56 118 20.56 118 19.11 118 19.11 124.47 20.56 124.47 22.56 124.47 24.32 124.47 26.33 124.47 28.09 124.47 30.09 124.47 31.85 124.47 33.85 124.47 35.62 124.47 37.62 124.47 39.38 124.47 41.39 124.47 43.14 124.47 45.15 124.47 46.91 124.47 48.92 124.47 50.68 124.47 52.68 124.47 54.44 124.47 56.45 124.47 58.21 124.47 60.21 124.47 61.98 124.47 63.98 124.47 65.74 124.47 67.75 124.47 69.29 124.47 69.29 118 67.75 118" style="fill:#bcbec0;mix-blend-mode:multiply"/><rect x="19.7" y="117.41" width="50.18" height="6.47" style="fill:#efefef"/><rect x="21.15" y="117.41" width="2.01" height="6.47" style="fill:#d8d8d8"/><rect x="25.26" y="117.41" width="2" height="6.47" style="fill:#d8d8d8"/><rect x="29.36" y="117.41" width="2.01" height="6.47" style="fill:#d8d8d8"/><rect x="33.47" y="117.41" width="2.01" height="6.47" style="fill:#d8d8d8"/><rect x="37.58" y="117.41" width="2" height="6.47" style="fill:#d8d8d8"/><rect x="41.69" y="117.41" width="2.01" height="6.47" style="fill:#d8d8d8"/><rect x="45.79" y="117.41" width="2.01" height="6.47" style="fill:#d8d8d8"/><rect x="49.9" y="117.41" width="2.01" height="6.47" style="fill:#d8d8d8"/><rect x="54.01" y="117.41" width="2.01" height="6.47" style="fill:#d8d8d8"/><rect x="58.12" y="117.41" width="2.01" height="6.47" style="fill:#d8d8d8"/><rect x="62.22" y="117.41" width="2.01" height="6.47" style="fill:#d8d8d8"/><rect x="66.33" y="117.41" width="2.01" height="6.47" style="fill:#d8d8d8"/><polygon points="62.42 110.95 60.42 110.95 58.65 110.95 56.65 110.95 54.89 110.95 52.89 110.95 51.13 110.95 49.12 110.95 47.35 110.95 45.35 110.95 43.6 110.95 41.59 110.95 39.83 110.95 37.82 110.95 36.07 110.95 34.06 110.95 32.3 110.95 30.29 110.95 28.53 110.95 26.53 110.95 24.77 110.95 22.76 110.95 21 110.95 19 110.95 17.24 110.95 15.23 110.95 13.79 110.95 13.79 117.41 15.23 117.41 17.24 117.41 19 117.41 21 117.41 22.76 117.41 24.77 117.41 26.53 117.41 28.53 117.41 30.29 117.41 32.3 117.41 34.06 117.41 36.07 117.41 37.82 117.41 39.83 117.41 41.59 117.41 43.6 117.41 45.35 117.41 47.35 117.41 49.12 117.41 51.13 117.41 52.89 117.41 54.89 117.41 56.65 117.41 58.65 117.41 60.42 117.41 62.42 117.41 63.97 117.41 63.97 110.95 62.42 110.95" style="fill:#bcbec0;mix-blend-mode:multiply"/><rect x="14.38" y="110.36" width="50.18" height="6.46" style="fill:#efefef"/><rect x="15.83" y="110.36" width="2.01" height="6.46" style="fill:#d8d8d8"/><rect x="19.94" y="110.36" width="2" height="6.46" style="fill:#d8d8d8"/><rect x="24.04" y="110.36" width="2.01" height="6.46" style="fill:#d8d8d8"/><rect x="28.15" y="110.36" width="2" height="6.46" style="fill:#d8d8d8"/><rect x="32.26" y="110.36" width="2" height="6.46" style="fill:#d8d8d8"/><rect x="36.36" y="110.36" width="2.01" height="6.46" style="fill:#d8d8d8"/><rect x="40.47" y="110.36" width="2.01" height="6.46" style="fill:#d8d8d8"/><rect x="44.58" y="110.36" width="2.01" height="6.46" style="fill:#d8d8d8"/><rect x="48.69" y="110.36" width="2.01" height="6.46" style="fill:#d8d8d8"/><rect x="52.79" y="110.36" width="2.01" height="6.46" style="fill:#d8d8d8"/><rect x="56.9" y="110.36" width="2.01" height="6.46" style="fill:#d8d8d8"/><rect x="61.01" y="110.36" width="2.01" height="6.46" style="fill:#d8d8d8"/><polygon points="71.75 103.89 69.75 103.89 67.98 103.89 65.98 103.89 64.22 103.89 62.21 103.89 60.45 103.89 58.45 103.89 56.68 103.89 54.68 103.89 52.92 103.89 50.91 103.89 49.16 103.89 47.15 103.89 45.39 103.89 43.39 103.89 41.62 103.89 39.62 103.89 37.86 103.89 35.85 103.89 34.1 103.89 32.09 103.89 30.33 103.89 28.33 103.89 26.57 103.89 24.56 103.89 23.11 103.89 23.11 110.36 24.56 110.36 26.57 110.36 28.33 110.36 30.33 110.36 32.09 110.36 34.1 110.36 35.85 110.36 37.86 110.36 39.62 110.36 41.62 110.36 43.39 110.36 45.39 110.36 47.15 110.36 49.16 110.36 50.91 110.36 52.92 110.36 54.68 110.36 56.68 110.36 58.45 110.36 60.45 110.36 62.21 110.36 64.22 110.36 65.98 110.36 67.98 110.36 69.75 110.36 71.75 110.36 73.29 110.36 73.29 103.89 71.75 103.89" style="fill:#bcbec0;mix-blend-mode:multiply"/><rect x="23.7" y="103.3" width="50.18" height="6.46" style="fill:#efefef"/><rect x="25.15" y="103.3" width="2.01" height="6.46" style="fill:#d8d8d8"/><rect x="29.26" y="103.3" width="2" height="6.46" style="fill:#d8d8d8"/><rect x="33.37" y="103.3" width="2.01" height="6.46" style="fill:#d8d8d8"/><rect x="37.48" y="103.3" width="2.01" height="6.46" style="fill:#d8d8d8"/><rect x="41.58" y="103.3" width="2" height="6.46" style="fill:#d8d8d8"/><rect x="45.69" y="103.3" width="2.01" height="6.46" style="fill:#d8d8d8"/><rect x="49.8" y="103.3" width="2.01" height="6.46" style="fill:#d8d8d8"/><rect x="53.91" y="103.3" width="2.01" height="6.46" style="fill:#d8d8d8"/><rect x="58.01" y="103.3" width="2.01" height="6.46" style="fill:#d8d8d8"/><rect x="62.12" y="103.3" width="2.01" height="6.46" style="fill:#d8d8d8"/><rect x="66.23" y="103.3" width="2.01" height="6.46" style="fill:#d8d8d8"/><rect x="70.34" y="103.3" width="2.01" height="6.46" style="fill:#d8d8d8"/><rect x="83.46" y="96.46" width="102.98" height="53.19" style="fill:#d8d8d8;mix-blend-mode:multiply"/><rect x="83.46" y="97.83" width="102.98" height="53.18" style="fill:#efefef"/><path d="M129,136.56v-6.33h1.51v1.91a.36.36,0,0,1,0,.16.34.34,0,0,0,0,.17.35.35,0,0,1,0,.16.36.36,0,0,0,0,.17l.11.21a3.37,3.37,0,0,0,1.4,1.51,3.92,3.92,0,0,0,2.16.57,4.28,4.28,0,0,0,1.47-.28A3.71,3.71,0,0,0,137,134a4.32,4.32,0,0,0,.83-1.11,3.59,3.59,0,0,0,.29-1.4,2.83,2.83,0,0,0-.11-.79,1.63,1.63,0,0,0-.07-.29l-.07-.18-.07-.16a1,1,0,0,0-.07-.17.55.55,0,0,1-.18-.25l-.27-.42a1.76,1.76,0,0,0-.3-.41v0a.74.74,0,0,1-.22-.29l-.18-.18-.18-.18a12.63,12.63,0,0,0-1-1l-1.07-1.09c-.18-.15-.33-.31-.49-.46l-.45-.4-.14-.14a.28.28,0,0,0-.07-.05.16.16,0,0,1-.07-.05,17.5,17.5,0,0,1-1.3-1.29,6.78,6.78,0,0,1-1-1.3,4.17,4.17,0,0,1-.27-.4,4.26,4.26,0,0,0-.27-.41,4.48,4.48,0,0,1-.25-.41l-.21-.4a8.49,8.49,0,0,1-.65-1.54,5.2,5.2,0,0,1-.25-1.7v-.25a8,8,0,0,1,.32-2.31,5.42,5.42,0,0,1,.58-1.12.2.2,0,0,1,.07-.14l.09-.1a1,1,0,0,1,.16-.19,8.94,8.94,0,0,1,1-1l.22-.1a6.93,6.93,0,0,1,1.37-.64,6,6,0,0,1,1.83-.25h.14a1.63,1.63,0,0,1,.47,0,5.76,5.76,0,0,1,2.05.43c.26.12.49.24.68.34a2.25,2.25,0,0,1,.46.35.88.88,0,0,0,.44,0c.19,0,.32-.24.39-.72h1.26v5.87h-1.26a7.85,7.85,0,0,0-.32-2.63.19.19,0,0,1,0-.14l0,0a.1.1,0,0,0,0-.07,3.88,3.88,0,0,0-.5-.94,3.66,3.66,0,0,0-1.33-1.11,4.69,4.69,0,0,0-1.83-.4,4.19,4.19,0,0,0-1.22.15,3.93,3.93,0,0,0-2,1.22,3.06,3.06,0,0,0-.78,2.09.55.55,0,0,1,0,.21.75.75,0,0,0,0,.26,4,4,0,0,0,.22.76,3.89,3.89,0,0,0,.39.71l.07.07a.15.15,0,0,0,0,.08,11.71,11.71,0,0,0,1.62,2,.4.4,0,0,0,.11.09l.07.05.52.48a6,6,0,0,0,.48.46l.83.88.32.32a3.26,3.26,0,0,0,.32.28l.32.32c.1.1.19.21.29.32.75.77,1.39,1.49,1.94,2.17a11.56,11.56,0,0,1,.72,1c.22.34.42.65.61,1l.07.14.07.15.07.14.07.14a8,8,0,0,1,.54,1.3,6.64,6.64,0,0,1,.18,1.44,8.53,8.53,0,0,1-.18,1.59l-.33.75c-.05.13-.11.24-.18.4a2.48,2.48,0,0,1-.25.39A5.94,5.94,0,0,1,139,135c-.05.06-.09.08-.11.08a5.4,5.4,0,0,1-1.84,1.07,6.16,6.16,0,0,1-2.19.4,5.32,5.32,0,0,1-1.91-.32,4.37,4.37,0,0,1-.87-.34,5.89,5.89,0,0,1-.79-.45.43.43,0,0,0-.14,0,.32.32,0,0,1-.15,0,.53.53,0,0,0-.22,0c-.14,0-.25.09-.32.29v.86Zm7.09-26.9v29.57h-2.23V109.65Z" style="fill:#d8d8d8"/><path d="M179.84,146.24H90.06V102.62h89.79Zm-87-2.84H177V105.45H92.89Z" style="fill:#d8d8d8"/><circle cx="107.25" cy="124.44" r="5.54" style="fill:#e8e8e8"/><ellipse cx="162.74" cy="124.44" rx="5.54" ry="5.54" style="fill:#e8e8e8"/><rect x="83.46" y="101.03" width="102.98" height="53.19" style="fill:#d8d8d8;mix-blend-mode:multiply"/><rect x="83.46" y="102.4" width="102.98" height="53.18" style="fill:#efefef"/><path d="M129,141.14V134.8h1.51v1.91a.32.32,0,0,1,0,.15.34.34,0,0,0,0,.17.35.35,0,0,1,0,.16.33.33,0,0,0,0,.16l.11.22a3.34,3.34,0,0,0,1.4,1.51,3.89,3.89,0,0,0,2.16.58,4.11,4.11,0,0,0,1.47-.3,3.6,3.6,0,0,0,1.19-.78,4.43,4.43,0,0,0,.83-1.12,3.56,3.56,0,0,0,.29-1.4,2.85,2.85,0,0,0-.11-.79,1.62,1.62,0,0,0-.07-.29l-.07-.18-.07-.17a1.51,1.51,0,0,0-.07-.17.52.52,0,0,1-.18-.25c-.1-.15-.19-.29-.27-.43a1.8,1.8,0,0,0-.3-.39v0a.71.71,0,0,1-.22-.29l-.18-.18-.18-.17a12.68,12.68,0,0,0-1-1l-1.07-1.08-.49-.46-.45-.4-.14-.14a.16.16,0,0,0-.07-.05l-.07-.05c-.48-.43-.91-.87-1.3-1.29a6.8,6.8,0,0,1-1-1.3,2.72,2.72,0,0,1-.27-.4c-.08-.13-.17-.27-.27-.41a4.41,4.41,0,0,1-.25-.4c-.07-.15-.14-.27-.21-.39a8.55,8.55,0,0,1-.65-1.54,5.26,5.26,0,0,1-.25-1.7v-.25a7.94,7.94,0,0,1,.32-2.3,5.21,5.21,0,0,1,.58-1.12.22.22,0,0,1,.07-.15.38.38,0,0,0,.09-.11l.16-.18a8.8,8.8,0,0,1,1-1l.22-.1a6.71,6.71,0,0,1,1.37-.64,5.9,5.9,0,0,1,1.83-.25h.14a1.63,1.63,0,0,1,.47,0,5.86,5.86,0,0,1,2.05.43l.68.35a2.12,2.12,0,0,1,.46.35c.24,0,.39.07.44,0s.32-.23.39-.72h1.26v5.87h-1.26a7.82,7.82,0,0,0-.32-2.63.19.19,0,0,1,0-.14.13.13,0,0,1,0-.05.1.1,0,0,0,0-.07,3.72,3.72,0,0,0-1.83-2.05,4.61,4.61,0,0,0-1.83-.4,4.06,4.06,0,0,0-1.22.15,4,4,0,0,0-2,1.22,3.07,3.07,0,0,0-.78,2.09.55.55,0,0,1,0,.21.76.76,0,0,0,0,.26,3.86,3.86,0,0,0,.22.76,3.93,3.93,0,0,0,.39.72l.07.06a.14.14,0,0,0,0,.08,11.87,11.87,0,0,0,1.62,2c0,.05.09.09.11.09l.07.05.52.48a4.77,4.77,0,0,0,.48.46l.83.86.32.32a2.12,2.12,0,0,0,.32.28l.32.33c.1.1.19.21.29.32.75.77,1.39,1.5,1.94,2.16.26.34.5.68.72,1s.42.66.61,1l.07.14.07.14.07.15.07.14a7.75,7.75,0,0,1,.54,1.3,6.64,6.64,0,0,1,.18,1.44,8.41,8.41,0,0,1-.18,1.58l-.33.75c-.05.13-.11.25-.18.39a2.33,2.33,0,0,1-.25.4,5.74,5.74,0,0,1-1.08,1.25c-.05.06-.09.09-.11.09a5.61,5.61,0,0,1-1.84,1.07,6.25,6.25,0,0,1-2.19.4,5.32,5.32,0,0,1-1.91-.33,4.59,4.59,0,0,1-.87-.33,8.66,8.66,0,0,1-.79-.45.44.44,0,0,0-.14,0,.32.32,0,0,1-.15,0,.46.46,0,0,0-.22,0c-.14,0-.25.09-.32.28v.87Zm7.09-26.91V143.8h-2.23V114.22Z" style="fill:#d8d8d8"/><path d="M179.84,150.81H90.06V107.19h89.79Zm-87-2.84H177V110H92.89Z" style="fill:#d8d8d8"/><ellipse cx="107.25" cy="129.01" rx="5.54" ry="5.53" style="fill:#e8e8e8"/><circle cx="162.74" cy="129.01" r="5.54" style="fill:#e8e8e8"/><rect x="83.46" y="105.6" width="102.98" height="53.19" style="fill:#d8d8d8;mix-blend-mode:multiply"/><rect x="83.46" y="106.98" width="102.98" height="53.18" style="fill:#efefef"/><path d="M129,145.7v-6.33h1.51v1.91a.32.32,0,0,1,0,.16.36.36,0,0,0,0,.17.32.32,0,0,1,0,.15.34.34,0,0,0,0,.17l.11.22a3.37,3.37,0,0,0,1.4,1.51,3.93,3.93,0,0,0,2.16.57,4.1,4.1,0,0,0,1.47-.29,3.61,3.61,0,0,0,1.19-.79,4.33,4.33,0,0,0,.83-1.12,3.58,3.58,0,0,0,.29-1.4,2.86,2.86,0,0,0-.11-.79,1.48,1.48,0,0,0-.07-.29l-.07-.18-.07-.16a.77.77,0,0,0-.07-.17.58.58,0,0,1-.18-.25c-.1-.14-.19-.28-.27-.42a1.65,1.65,0,0,0-.3-.4v0a.8.8,0,0,1-.22-.28l-.18-.18-.18-.17a13.53,13.53,0,0,0-1-1l-1.07-1.09c-.18-.15-.33-.31-.49-.46s-.31-.27-.45-.4l-.14-.14a.28.28,0,0,0-.07-.05.17.17,0,0,1-.07-.06,17.47,17.47,0,0,1-1.3-1.28,6.66,6.66,0,0,1-1-1.3,3.72,3.72,0,0,1-.27-.4c-.08-.14-.17-.28-.27-.42a3.88,3.88,0,0,1-.25-.4l-.21-.4a8.07,8.07,0,0,1-.65-1.53,5.21,5.21,0,0,1-.25-1.69v-.25a8,8,0,0,1,.32-2.31,5.39,5.39,0,0,1,.58-1.11.19.19,0,0,1,.07-.14l.09-.11a1.23,1.23,0,0,1,.16-.19,8.5,8.5,0,0,1,1-1l.22-.1a7,7,0,0,1,1.37-.65,6.06,6.06,0,0,1,1.83-.25h.14a1.48,1.48,0,0,1,.47,0,5.68,5.68,0,0,1,2.05.42c.26.12.49.25.68.35a1.88,1.88,0,0,1,.46.35,1,1,0,0,0,.44,0c.19,0,.32-.24.39-.72h1.26v5.87h-1.26a7.84,7.84,0,0,0-.32-2.63s0-.07,0-.14a.11.11,0,0,1,0-.05.08.08,0,0,0,0-.06,3.46,3.46,0,0,0-.5-.94,3.58,3.58,0,0,0-1.33-1.12,4.54,4.54,0,0,0-1.83-.4,4,4,0,0,0-1.22.15,4,4,0,0,0-2,1.22,3.07,3.07,0,0,0-.78,2.09.58.58,0,0,1,0,.21.69.69,0,0,0,0,.25,4,4,0,0,0,.22.77,3.86,3.86,0,0,0,.39.71l.07.07a.15.15,0,0,0,0,.08,12.07,12.07,0,0,0,1.62,2,.36.36,0,0,0,.11.08l.07.05.52.49c.15.15.31.32.48.46l.83.87.32.32a2.36,2.36,0,0,0,.32.27l.32.33a3.66,3.66,0,0,1,.29.33c.75.76,1.39,1.48,1.94,2.16a10.49,10.49,0,0,1,.72,1c.22.33.42.65.61,1l.07.14.07.14.07.14.07.14a7.75,7.75,0,0,1,.54,1.3,6.64,6.64,0,0,1,.18,1.44,8.5,8.5,0,0,1-.18,1.59l-.33.75c-.05.13-.11.25-.18.39a2.08,2.08,0,0,1-.25.4,5.85,5.85,0,0,1-1.08,1.25c-.05.06-.09.08-.11.08a5.57,5.57,0,0,1-1.84,1.07,6.25,6.25,0,0,1-2.19.4,5.14,5.14,0,0,1-1.91-.33,4.32,4.32,0,0,1-.87-.33,8.72,8.72,0,0,1-.79-.45.59.59,0,0,0-.14,0,.32.32,0,0,1-.15,0,.53.53,0,0,0-.22,0c-.14,0-.25.1-.32.28v.86Zm7.09-26.91v29.58h-2.23V118.79Z" style="fill:#d8d8d8"/><path d="M179.84,155.38H90.06V111.77h89.79Zm-87-2.84H177V114.59H92.89Z" style="fill:#d8d8d8"/><path d="M112.79,133.58a5.54,5.54,0,1,1-5.54-5.53A5.54,5.54,0,0,1,112.79,133.58Z" style="fill:#e8e8e8"/><path d="M168.27,133.58a5.54,5.54,0,1,1-5.53-5.53A5.54,5.54,0,0,1,168.27,133.58Z" style="fill:#e8e8e8"/><polygon points="137.56 96.46 179.84 159.17 88.7 160.9 94.96 123.02 137.56 96.46" style="fill:#d8d8d8;mix-blend-mode:multiply"/><path d="M131.44,92.27h-7.25V56a33.2,33.2,0,0,0-66.4,0V92.27H50.54V56a40.45,40.45,0,0,1,80.9,0Z" style="fill:#d8d8d8"/><path d="M140,111.86A49,49,0,0,0,49.88,85.14l80.75,55.59A48.78,48.78,0,0,0,140,111.86Z" style="fill:#00beff"/><path d="M49.88,85.14a49,49,0,0,0,80.75,55.59Z" style="fill:#0aa4f5"/><path d="M91,153.56a41.09,41.09,0,1,1,41.09-41.1A41.14,41.14,0,0,1,91,153.56Zm0-81.72a40.63,40.63,0,1,0,40.63,40.62A40.67,40.67,0,0,0,91,71.84Zm0,79.91a39.29,39.29,0,1,1,39.28-39.29A39.34,39.34,0,0,1,91,151.76Zm0-78.11a38.82,38.82,0,1,0,38.81,38.82A38.87,38.87,0,0,0,91,73.65Z" style="fill:#fff"/><path d="M99.55,108.36a8.56,8.56,0,1,0-13.79,6.73L85,123.91H97l-.73-8.81A8.5,8.5,0,0,0,99.55,108.36Z" style="fill:#676767"/></g></g></svg>