<svg xmlns="http://www.w3.org/2000/svg" viewBox="0 0 200 200"><title>Plan de travail 1</title><g style="isolation:isolate"><g id="82a23851-aa39-4acb-b51f-e0f7ff050839" data-name="Calque 2"><rect x="20.21" y="37.91" width="158.22" height="122.02" rx="13.11" ry="13.11" style="fill:#595959"/><path d="M165.33,151.74h-2.54v-1.09h2.54a3.81,3.81,0,0,0,3.76-3.15l1.08.19A4.9,4.9,0,0,1,165.33,151.74Zm-11.16,0h-8.63v-1.09h8.63Zm-17.25,0h-8.62v-1.09h8.62Zm-17.25,0H111v-1.09h8.63Zm-17.25,0H93.8v-1.09h8.62Zm-17.25,0H76.55v-1.09h8.62Zm-17.25,0H59.3v-1.09h8.62Zm-17.25,0H42.05v-1.09h8.62Zm-17.25,0h-.11a4.92,4.92,0,0,1-4.92-4.92v-1.76h1.09v1.76a3.83,3.83,0,0,0,3.82,3.82ZM170.24,139h-1.09v-8.62h1.09ZM29.49,136.44H28.4v-8.62h1.09Zm140.75-14.72h-1.09v-8.62h1.09ZM29.49,119.19H28.4v-8.62h1.09Zm140.75-14.72h-1.09V95.84h1.09ZM29.49,101.94H28.4V93.31h1.09ZM170.24,87.22h-1.09V78.59h1.09ZM29.49,84.69H28.4V76.06h1.09ZM170.24,70h-1.09V61.35h1.09ZM29.49,67.44H28.4V58.82h1.09ZM170.24,52.72h-1.09V51a3.83,3.83,0,0,0-3.82-3.82l-.06-1.09h.06A4.92,4.92,0,0,1,170.24,51ZM29.56,50.3l-1.07-.2a4.92,4.92,0,0,1,4.83-4H35.9V47.2H33.31A3.83,3.83,0,0,0,29.56,50.3Zm127.09-3.1H148V46.11h8.62Zm-17.25,0h-8.62V46.11h8.62Zm-17.25,0h-8.62V46.11h8.62Zm-17.25,0H96.27V46.11h8.62Zm-17.25,0H79V46.11h8.62Zm-17.25,0H61.77V46.11H70.4Zm-17.25,0H44.53V46.11h8.62Z" style="fill:#fff"/><path d="M63.47,101.93A8.07,8.07,0,0,1,54.68,110l-32.39-2.19a9.49,9.49,0,0,1-8.78-9.28V90.86a8.07,8.07,0,0,1,8.79-8.09L54.69,85a9.49,9.49,0,0,1,8.79,9.28Z" style="fill:#d8d8d8;mix-blend-mode:multiply"/><rect x="13.55" y="82.19" width="49.68" height="25.21" rx="8.74" ry="8.74" style="fill:#676767"/><circle cx="49.13" cy="94.79" r="7.3" style="fill:#fff"/><polygon points="179.22 152.54 176.73 152.54 174.54 152.54 172.05 152.54 169.85 152.54 167.36 152.54 165.17 152.54 162.67 152.54 160.49 152.54 157.99 152.54 155.81 152.54 153.31 152.54 151.12 152.54 148.62 152.54 146.44 152.54 143.94 152.54 141.75 152.54 139.26 152.54 137.07 152.54 134.57 152.54 132.39 152.54 129.89 152.54 127.7 152.54 125.21 152.54 123.02 152.54 120.52 152.54 118.72 152.54 118.72 160.58 120.52 160.58 123.02 160.58 125.21 160.58 127.7 160.58 129.89 160.58 132.39 160.58 134.57 160.58 137.07 160.58 139.26 160.58 141.75 160.58 143.94 160.58 146.44 160.58 148.62 160.58 151.12 160.58 153.31 160.58 155.81 160.58 157.99 160.58 160.49 160.58 162.67 160.58 165.17 160.58 167.36 160.58 169.85 160.58 172.05 160.58 174.54 160.58 176.73 160.58 179.22 160.58 181.14 160.58 181.14 152.54 179.22 152.54" style="fill:#bcbec0;mix-blend-mode:multiply"/><rect x="119.46" y="151.81" width="62.42" height="8.03" style="fill:#40ceff"/><rect x="121.26" y="151.81" width="2.5" height="8.03" style="fill:#0aa4f5"/><rect x="126.37" y="151.81" width="2.49" height="8.03" style="fill:#0aa4f5"/><rect x="131.48" y="151.81" width="2.5" height="8.03" style="fill:#0aa4f5"/><rect x="136.59" y="151.81" width="2.5" height="8.03" style="fill:#0aa4f5"/><rect x="141.7" y="151.81" width="2.5" height="8.03" style="fill:#0aa4f5"/><rect x="146.81" y="151.81" width="2.5" height="8.03" style="fill:#0aa4f5"/><rect x="151.92" y="151.81" width="2.5" height="8.03" style="fill:#0aa4f5"/><rect x="157.03" y="151.81" width="2.5" height="8.03" style="fill:#0aa4f5"/><rect x="162.14" y="151.81" width="2.5" height="8.03" style="fill:#0aa4f5"/><rect x="167.25" y="151.81" width="2.49" height="8.03" style="fill:#0aa4f5"/><rect x="172.36" y="151.81" width="2.5" height="8.03" style="fill:#0aa4f5"/><rect x="177.46" y="151.81" width="2.5" height="8.03" style="fill:#0aa4f5"/><polygon points="176.47 145 173.97 145 171.79 145 169.29 145 167.1 145 164.61 145 162.42 145 159.92 145 157.73 145 155.24 145 153.05 145 150.55 145 148.37 145 145.87 145 143.68 145 141.19 145 139 145 136.51 145 134.32 145 131.82 145 129.63 145 127.14 145 124.95 145 122.45 145 120.27 145 117.77 145 115.97 145 115.97 153.04 117.77 153.04 120.27 153.04 122.45 153.04 124.95 153.04 127.14 153.04 129.63 153.04 131.82 153.04 134.32 153.04 136.51 153.04 139 153.04 141.19 153.04 143.68 153.04 145.87 153.04 148.37 153.04 150.55 153.04 153.05 153.04 155.24 153.04 157.73 153.04 159.92 153.04 162.42 153.04 164.61 153.04 167.1 153.04 169.29 153.04 171.79 153.04 173.97 153.04 176.47 153.04 178.39 153.04 178.39 145 176.47 145" style="fill:#bcbec0;mix-blend-mode:multiply"/><rect x="116.71" y="144.27" width="62.42" height="8.04" style="fill:#40ceff"/><rect x="118.51" y="144.27" width="2.5" height="8.04" style="fill:#0aa4f5"/><rect x="123.62" y="144.27" width="2.49" height="8.04" style="fill:#0aa4f5"/><rect x="128.73" y="144.27" width="2.5" height="8.04" style="fill:#0aa4f5"/><rect x="133.84" y="144.27" width="2.5" height="8.04" style="fill:#0aa4f5"/><rect x="138.94" y="144.27" width="2.5" height="8.04" style="fill:#0aa4f5"/><rect x="144.06" y="144.27" width="2.5" height="8.04" style="fill:#0aa4f5"/><rect x="149.17" y="144.27" width="2.5" height="8.04" style="fill:#0aa4f5"/><rect x="154.27" y="144.27" width="2.5" height="8.04" style="fill:#0aa4f5"/><rect x="159.38" y="144.27" width="2.5" height="8.04" style="fill:#0aa4f5"/><rect x="164.49" y="144.27" width="2.49" height="8.04" style="fill:#0aa4f5"/><rect x="169.6" y="144.27" width="2.5" height="8.04" style="fill:#0aa4f5"/><rect x="174.71" y="144.27" width="2.5" height="8.04" style="fill:#0aa4f5"/><polygon points="182.69 136.55 180.19 136.55 178.01 136.55 175.51 136.55 173.32 136.55 170.83 136.55 168.64 136.55 166.14 136.55 163.95 136.55 161.46 136.55 159.27 136.55 156.77 136.55 154.59 136.55 152.09 136.55 149.9 136.55 147.41 136.55 145.22 136.55 142.73 136.55 140.53 136.55 138.04 136.55 135.85 136.55 133.35 136.55 131.17 136.55 128.67 136.55 126.49 136.55 123.99 136.55 122.19 136.55 122.19 144.58 123.99 144.58 126.49 144.58 128.67 144.58 131.17 144.58 133.35 144.58 135.85 144.58 138.04 144.58 140.53 144.58 142.73 144.58 145.22 144.58 147.41 144.58 149.9 144.58 152.09 144.58 154.59 144.58 156.77 144.58 159.27 144.58 161.46 144.58 163.95 144.58 166.14 144.58 168.64 144.58 170.83 144.58 173.32 144.58 175.51 144.58 178.01 144.58 180.19 144.58 182.69 144.58 184.61 144.58 184.61 136.55 182.69 136.55" style="fill:#bcbec0;mix-blend-mode:multiply"/><rect x="122.93" y="135.81" width="62.42" height="8.04" style="fill:#40ceff"/><rect x="124.73" y="135.81" width="2.5" height="8.04" style="fill:#0aa4f5"/><rect x="129.84" y="135.81" width="2.49" height="8.04" style="fill:#0aa4f5"/><rect x="134.94" y="135.81" width="2.5" height="8.04" style="fill:#0aa4f5"/><rect x="140.06" y="135.81" width="2.5" height="8.04" style="fill:#0aa4f5"/><rect x="145.16" y="135.81" width="2.5" height="8.04" style="fill:#0aa4f5"/><rect x="150.28" y="135.81" width="2.5" height="8.04" style="fill:#0aa4f5"/><rect x="155.39" y="135.81" width="2.5" height="8.04" style="fill:#0aa4f5"/><rect x="160.49" y="135.81" width="2.5" height="8.04" style="fill:#0aa4f5"/><rect x="165.6" y="135.81" width="2.5" height="8.04" style="fill:#0aa4f5"/><rect x="170.71" y="135.81" width="2.49" height="8.04" style="fill:#0aa4f5"/><rect x="175.82" y="135.81" width="2.5" height="8.04" style="fill:#0aa4f5"/><rect x="180.93" y="135.81" width="2.49" height="8.04" style="fill:#0aa4f5"/><polygon points="179.43 128.42 176.93 128.42 174.75 128.42 172.25 128.42 170.06 128.42 167.57 128.42 165.38 128.42 162.89 128.42 160.69 128.42 158.2 128.42 156.01 128.42 153.52 128.42 151.33 128.42 148.83 128.42 146.64 128.42 144.15 128.42 141.96 128.42 139.47 128.42 137.28 128.42 134.78 128.42 132.59 128.42 130.09 128.42 127.91 128.42 125.42 128.42 123.23 128.42 120.73 128.42 118.93 128.42 118.93 136.47 120.73 136.47 123.23 136.47 125.42 136.47 127.91 136.47 130.09 136.47 132.59 136.47 134.78 136.47 137.28 136.47 139.47 136.47 141.96 136.47 144.15 136.47 146.64 136.47 148.83 136.47 151.33 136.47 153.52 136.47 156.01 136.47 158.2 136.47 160.69 136.47 162.89 136.47 165.38 136.47 167.57 136.47 170.06 136.47 172.25 136.47 174.75 136.47 176.93 136.47 179.43 136.47 181.35 136.47 181.35 128.42 179.43 128.42" style="fill:#bcbec0;mix-blend-mode:multiply"/><rect x="119.67" y="127.69" width="62.42" height="8.03" style="fill:#40ceff"/><rect x="121.47" y="127.69" width="2.5" height="8.03" style="fill:#0aa4f5"/><rect x="126.58" y="127.69" width="2.5" height="8.03" style="fill:#0aa4f5"/><rect x="131.69" y="127.69" width="2.5" height="8.03" style="fill:#0aa4f5"/><rect x="136.8" y="127.69" width="2.5" height="8.03" style="fill:#0aa4f5"/><rect x="141.91" y="127.69" width="2.49" height="8.03" style="fill:#0aa4f5"/><rect x="147.02" y="127.69" width="2.5" height="8.03" style="fill:#0aa4f5"/><rect x="152.13" y="127.69" width="2.5" height="8.03" style="fill:#0aa4f5"/><rect x="157.24" y="127.69" width="2.5" height="8.03" style="fill:#0aa4f5"/><rect x="162.35" y="127.69" width="2.49" height="8.03" style="fill:#0aa4f5"/><rect x="167.46" y="127.69" width="2.49" height="8.03" style="fill:#0aa4f5"/><rect x="172.56" y="127.69" width="2.49" height="8.03" style="fill:#0aa4f5"/><rect x="177.67" y="127.69" width="2.5" height="8.03" style="fill:#0aa4f5"/><polygon points="180.71 120.39 178.21 120.39 176.02 120.39 173.53 120.39 171.34 120.39 168.84 120.39 166.65 120.39 164.16 120.39 161.96 120.39 159.47 120.39 157.29 120.39 154.79 120.39 152.6 120.39 150.1 120.39 147.92 120.39 145.42 120.39 143.23 120.39 140.74 120.39 138.55 120.39 136.05 120.39 133.87 120.39 131.37 120.39 129.18 120.39 126.69 120.39 124.5 120.39 122 120.39 120.2 120.39 120.2 128.42 122 128.42 124.5 128.42 126.69 128.42 129.18 128.42 131.37 128.42 133.87 128.42 136.05 128.42 138.55 128.42 140.74 128.42 143.23 128.42 145.42 128.42 147.92 128.42 150.1 128.42 152.6 128.42 154.79 128.42 157.29 128.42 159.47 128.42 161.96 128.42 164.16 128.42 166.65 128.42 168.84 128.42 171.34 128.42 173.53 128.42 176.02 128.42 178.21 128.42 180.71 128.42 182.62 128.42 182.62 120.39 180.71 120.39" style="fill:#bcbec0;mix-blend-mode:multiply"/><rect x="120.94" y="119.65" width="62.42" height="8.04" style="fill:#40ceff"/><rect x="122.74" y="119.65" width="2.5" height="8.04" style="fill:#0aa4f5"/><rect x="127.86" y="119.65" width="2.49" height="8.04" style="fill:#0aa4f5"/><rect x="132.96" y="119.65" width="2.5" height="8.04" style="fill:#0aa4f5"/><rect x="138.07" y="119.65" width="2.49" height="8.04" style="fill:#0aa4f5"/><rect x="143.18" y="119.65" width="2.49" height="8.04" style="fill:#0aa4f5"/><rect x="148.29" y="119.65" width="2.5" height="8.04" style="fill:#0aa4f5"/><rect x="153.4" y="119.65" width="2.5" height="8.04" style="fill:#0aa4f5"/><rect x="158.51" y="119.65" width="2.5" height="8.04" style="fill:#0aa4f5"/><rect x="163.62" y="119.65" width="2.5" height="8.04" style="fill:#0aa4f5"/><rect x="168.73" y="119.65" width="2.5" height="8.04" style="fill:#0aa4f5"/><rect x="173.83" y="119.65" width="2.5" height="8.04" style="fill:#0aa4f5"/><rect x="178.95" y="119.65" width="2.5" height="8.04" style="fill:#0aa4f5"/><polygon points="181.08 112.35 178.58 112.35 176.39 112.35 173.9 112.35 171.71 112.35 169.21 112.35 167.02 112.35 164.53 112.35 162.34 112.35 159.84 112.35 157.66 112.35 155.16 112.35 152.97 112.35 150.47 112.35 148.29 112.35 145.79 112.35 143.6 112.35 141.11 112.35 138.92 112.35 136.42 112.35 134.24 112.35 131.74 112.35 129.55 112.35 127.06 112.35 124.87 112.35 122.38 112.35 120.57 112.35 120.57 120.39 122.38 120.39 124.87 120.39 127.06 120.39 129.55 120.39 131.74 120.39 134.24 120.39 136.42 120.39 138.92 120.39 141.11 120.39 143.6 120.39 145.79 120.39 148.29 120.39 150.47 120.39 152.97 120.39 155.16 120.39 157.66 120.39 159.84 120.39 162.34 120.39 164.53 120.39 167.02 120.39 169.21 120.39 171.71 120.39 173.9 120.39 176.39 120.39 178.58 120.39 181.08 120.39 182.99 120.39 182.99 112.35 181.08 112.35" style="fill:#bcbec0;mix-blend-mode:multiply"/><rect x="121.31" y="111.61" width="62.42" height="8.04" style="fill:#40ceff"/><rect x="123.11" y="111.61" width="2.5" height="8.04" style="fill:#0aa4f5"/><rect x="128.22" y="111.61" width="2.49" height="8.04" style="fill:#0aa4f5"/><rect x="133.33" y="111.61" width="2.5" height="8.04" style="fill:#0aa4f5"/><rect x="138.44" y="111.61" width="2.5" height="8.04" style="fill:#0aa4f5"/><rect x="143.55" y="111.61" width="2.5" height="8.04" style="fill:#0aa4f5"/><rect x="148.66" y="111.61" width="2.5" height="8.04" style="fill:#0aa4f5"/><rect x="153.77" y="111.61" width="2.5" height="8.04" style="fill:#0aa4f5"/><rect x="158.88" y="111.61" width="2.5" height="8.04" style="fill:#0aa4f5"/><rect x="163.99" y="111.61" width="2.5" height="8.04" style="fill:#0aa4f5"/><rect x="169.1" y="111.61" width="2.49" height="8.04" style="fill:#0aa4f5"/><rect x="174.21" y="111.61" width="2.5" height="8.04" style="fill:#0aa4f5"/><rect x="179.32" y="111.61" width="2.49" height="8.04" style="fill:#0aa4f5"/><polygon points="150.19 111.61 181.88 159.84 115.97 160.58 150.19 111.61" style="fill:#d1d3d4;mix-blend-mode:multiply"/><path d="M151.16,121.61a40.57,40.57,0,1,1-40.27-40.77A40.52,40.52,0,0,1,151.16,121.61Z" style="fill:#00beff"/><path d="M145.57,121.56a35,35,0,1,1-34.75-35.21A35.07,35.07,0,0,1,145.57,121.56Z" style="fill:#0aa4f5"/><path d="M142.85,121.53a32.24,32.24,0,1,1-32-32.46A32.26,32.26,0,0,1,142.85,121.53Z" style="fill:#00beff"/><g style="mix-blend-mode:overlay"><path d="M108.91,140.34V135.6a12.53,12.53,0,0,1-7-2.1l1.14-3a12,12,0,0,0,6.68,2c3.21,0,5.51-1.82,5.51-4.5s-1.78-4.16-5.24-5.56c-4.7-1.84-7.56-4-7.49-8,0-3.87,2.67-6.72,7-7.33v-4.74l2.89,0,0,4.5a11.76,11.76,0,0,1,6,1.67l-1.21,3a11.3,11.3,0,0,0-5.8-1.57c-3.56,0-4.89,2.07-4.88,3.87-.08,2.5,1.65,3.68,5.72,5.38,4.69,1.92,7.1,4.33,7,8.5,0,3.65-2.56,7.07-7.37,7.75v4.85Z" style="fill:#231f20"/></g></g></g></svg>